<svg width="1200" height="720" viewBox="0 0 1200 720" fill="none" xmlns="http://www.w3.org/2000/svg">
  <rect width="1200" height="720" fill="#08111A"/>
  <circle cx="190" cy="140" r="220" fill="#2D6B6F" fill-opacity="0.32"/>
  <circle cx="990" cy="210" r="210" fill="#4E4D8C" fill-opacity="0.28"/>
  <circle cx="670" cy="630" r="280" fill="#8A4B5E" fill-opacity="0.22"/>
  <path d="M112 558C248 453 337 438 510 484C679 531 776 533 934 452C1014 410 1050 377 1100 332" stroke="#8EE7CB" stroke-opacity="0.8" stroke-width="4"/>
  <path d="M132 605C265 500 390 496 560 544C726 590 841 592 1018 500" stroke="#85BFFF" stroke-opacity="0.6" stroke-width="3" stroke-dasharray="8 12"/>
  <rect x="96" y="94" width="372" height="172" rx="14" fill="#091E29" fill-opacity="0.88" stroke="#325B6A"/>
  <text x="128" y="144" fill="#D9FBF1" font-size="40" font-family="'Segoe UI', sans-serif" font-weight="700">MODERN</text>
  <text x="128" y="186" fill="#D9FBF1" font-size="40" font-family="'Segoe UI', sans-serif" font-weight="700">RELATIONSHIP</text>
  <text x="128" y="228" fill="#D9FBF1" font-size="40" font-family="'Segoe UI', sans-serif" font-weight="700">DYNAMICS</text>
  <text x="128" y="252" fill="#9CC8D2" font-size="18" font-family="'Segoe UI', sans-serif">Stop Guessing. Start Calculating.</text>
</svg>
